STARTFONT 2.1
FONT -DEC-NarkissTam-Medium-O-Normal--14-100-100-100-P-78-ISO8859-8
SIZE 10 100 100
FONTBOUNDINGBOX 16 15 -1 -3

STARTPROPERTIES 26
FONTNAME_REGISTRY ""
FAMILY_NAME "NarkissTam"
FOUNDRY "DEC"
WEIGHT_NAME "Medium"
SLANT "O"
SETWIDTH_NAME "Normal"
ADD_STYLE_NAME ""
PIXEL_SIZE 14
RESOLUTION_X 100
RESOLUTION_Y 100
SPACING "P"
AVERAGE_WIDTH 78
CHARSET_REGISTRY "ISO8859"
CHARSET_ENCODING "8"
CHARSET_COLLECTIONS "ASCII ISO8859-8 "
FULL_NAME "NarkissTam Oblique"
COPYRIGHT "Digital Israel"
CAP_HEIGHT 11
X_HEIGHT 8
_DEC_DEVICE_FONTNAMES "PS=NarkissTam-Oblique-ISOLatinHebrew"
QUAD_WIDTH 8
POINT_SIZE 100
WEIGHT 10
DEFAULT_CHAR 0
FONT_DESCENT 3
FONT_ASCENT 13
ENDPROPERTIES

CHARS 152

STARTCHAR space
ENCODING 32
SWIDTH 288 0
DWIDTH 4 0
BBX 1 1 0 0
BITMAP
00
ENDCHAR

STARTCHAR exclam
ENCODING 33
SWIDTH 288 0
DWIDTH 4 0
BBX 4 11 1 0
BITMAP
10
10
20
20
20
40
40
40
00
80
80
ENDCHAR

STARTCHAR quotedbl
ENCODING 34
SWIDTH 360 0
DWIDTH 5 0
BBX 4 3 2 8
BITMAP
50
50
A0
ENDCHAR

STARTCHAR numbersign
ENCODING 35
SWIDTH 648 0
DWIDTH 9 0
BBX 9 10 0 0
BITMAP
0900
0900
1200
7F80
1200
2400
FE00
2400
4800
4800
ENDCHAR

STARTCHAR dollar
ENCODING 36
SWIDTH 576 0
DWIDTH 8 0
BBX 8 14 0 -2
BITMAP
04
0E
15
25
24
28
18
0C
12
92
94
78
20
20
ENDCHAR

STARTCHAR percent
ENCODING 37
SWIDTH 864 0
DWIDTH 12 0
BBX 10 11 2 0
BITMAP
3840
4480
4500
3A00
0400
0400
0800
1700
2880
4880
8700
ENDCHAR

STARTCHAR ampersand
ENCODING 38
SWIDTH 720 0
DWIDTH 10 0
BBX 8 10 1 0
BITMAP
1C
24
24
18
31
49
86
84
8A
71
ENDCHAR

STARTCHAR quoteright
ENCODING 39
SWIDTH 216 0
DWIDTH 3 0
BBX 2 3 3 8
BITMAP
C0
40
80
ENDCHAR

STARTCHAR parenleft
ENCODING 40
SWIDTH 360 0
DWIDTH 5 0
BBX 5 14 1 -3
BITMAP
08
10
20
20
40
40
80
80
80
80
80
80
40
40
ENDCHAR

STARTCHAR parenright
ENCODING 41
SWIDTH 360 0
DWIDTH 5 0
BBX 5 14 0 -3
BITMAP
10
10
08
08
08
08
08
08
10
10
20
20
40
80
ENDCHAR

STARTCHAR asterisk
ENCODING 42
SWIDTH 576 0
DWIDTH 8 0
BBX 6 5 3 6
BITMAP
10
54
78
A8
20
ENDCHAR

STARTCHAR plus
ENCODING 43
SWIDTH 648 0
DWIDTH 9 0
BBX 7 7 1 1
BITMAP
08
08
10
FE
10
20
20
ENDCHAR

STARTCHAR comma
ENCODING 44
SWIDTH 216 0
DWIDTH 3 0
BBX 2 4 0 -2
BITMAP
40
40
40
80
ENDCHAR

STARTCHAR minus
ENCODING 45
SWIDTH 648 0
DWIDTH 9 0
BBX 7 1 1 4
BITMAP
FE
ENDCHAR

STARTCHAR period
ENCODING 46
SWIDTH 216 0
DWIDTH 3 0
BBX 1 2 1 0
BITMAP
80
80
ENDCHAR

STARTCHAR slash
ENCODING 47
SWIDTH 288 0
DWIDTH 4 0
BBX 5 11 0 0
BITMAP
08
08
10
10
20
20
20
40
40
80
80
ENDCHAR

STARTCHAR zero
ENCODING 48
SWIDTH 576 0
DWIDTH 8 0
BBX 9 11 0 0
BITMAP
0F00
1080
1080
2100
2100
4100
4200
4200
8400
8400
7800
ENDCHAR

STARTCHAR one
ENCODING 49
SWIDTH 576 0
DWIDTH 8 0
BBX 4 11 3 0
BITMAP
10
F0
10
20
20
40
40
40
80
80
80
ENDCHAR

STARTCHAR two
ENCODING 50
SWIDTH 576 0
DWIDTH 8 0
BBX 8 11 0 0
BITMAP
1E
21
21
01
02
0C
10
60
80
80
FC
ENDCHAR

STARTCHAR three
ENCODING 51
SWIDTH 576 0
DWIDTH 8 0
BBX 8 11 0 0
BITMAP
1E
21
21
01
02
1C
02
02
84
84
78
ENDCHAR

STARTCHAR four
ENCODING 52
SWIDTH 576 0
DWIDTH 8 0
BBX 8 11 0 0
BITMAP
03
05
09
12
22
44
84
FE
08
10
10
ENDCHAR

STARTCHAR five
ENCODING 53
SWIDTH 576 0
DWIDTH 8 0
BBX 8 11 0 0
BITMAP
0F
10
10
20
3C
02
02
02
84
84
78
ENDCHAR

STARTCHAR six
ENCODING 54
SWIDTH 576 0
DWIDTH 8 0
BBX 7 11 1 0
BITMAP
1C
22
42
40
B8
C4
84
84
84
88
70
ENDCHAR

STARTCHAR seven
ENCODING 55
SWIDTH 576 0
DWIDTH 8 0
BBX 7 11 2 0
BITMAP
7E
02
04
08
10
20
20
40
40
80
80
ENDCHAR

STARTCHAR eight
ENCODING 56
SWIDTH 576 0
DWIDTH 8 0
BBX 8 11 0 0
BITMAP
0E
11
21
21
12
3C
42
82
82
84
78
ENDCHAR

STARTCHAR nine
ENCODING 57
SWIDTH 576 0
DWIDTH 8 0
BBX 7 11 1 0
BITMAP
1C
22
42
42
42
44
3C
04
88
88
70
ENDCHAR

STARTCHAR colon
ENCODING 58
SWIDTH 288 0
DWIDTH 4 0
BBX 3 8 1 0
BITMAP
20
20
00
00
00
00
80
80
ENDCHAR

STARTCHAR semicolon
ENCODING 59
SWIDTH 288 0
DWIDTH 4 0
BBX 4 10 0 -2
BITMAP
10
10
00
00
00
00
40
40
40
80
ENDCHAR

STARTCHAR less
ENCODING 60
SWIDTH 648 0
DWIDTH 9 0
BBX 7 5 1 2
BITMAP
06
38
C0
30
0C
ENDCHAR

STARTCHAR equal
ENCODING 61
SWIDTH 648 0
DWIDTH 9 0
BBX 7 3 1 3
BITMAP
7E
00
FC
ENDCHAR

STARTCHAR greater
ENCODING 62
SWIDTH 648 0
DWIDTH 9 0
BBX 7 5 1 2
BITMAP
60
18
06
38
C0
ENDCHAR

STARTCHAR question
ENCODING 63
SWIDTH 576 0
DWIDTH 8 0
BBX 6 11 3 0
BITMAP
38
44
84
84
08
10
20
40
00
80
80
ENDCHAR

STARTCHAR at
ENCODING 64
SWIDTH 936 0
DWIDTH 13 0
BBX 12 12 1 -1
BITMAP
07C0
1820
2010
4790
4890
9120
9120
9340
9D80
8000
4000
3F00
ENDCHAR

STARTCHAR A
ENCODING 65
SWIDTH 792 0
DWIDTH 11 0
BBX 9 11 1 0
BITMAP
0200
0500
0900
0900
1100
1100
2100
7F80
4080
8080
8080
ENDCHAR

STARTCHAR B
ENCODING 66
SWIDTH 720 0
DWIDTH 10 0
BBX 9 11 1 0
BITMAP
1F00
1080
2080
2080
2100
7E00
4100
4100
8100
8200
FC00
ENDCHAR

STARTCHAR C
ENCODING 67
SWIDTH 720 0
DWIDTH 10 0
BBX 9 11 1 0
BITMAP
0F00
1080
2080
4000
4000
8000
8000
8100
8200
C600
3800
ENDCHAR

STARTCHAR D
ENCODING 68
SWIDTH 720 0
DWIDTH 10 0
BBX 10 11 1 0
BITMAP
1F00
1080
2080
2040
2040
4040
4080
4080
8100
8600
F800
ENDCHAR

STARTCHAR E
ENCODING 69
SWIDTH 648 0
DWIDTH 9 0
BBX 10 11 1 0
BITMAP
1FC0
1000
1000
2000
2000
7E00
4000
4000
8000
8000
FE00
ENDCHAR

STARTCHAR F
ENCODING 70
SWIDTH 648 0
DWIDTH 9 0
BBX 10 11 1 0
BITMAP
1FC0
1000
2000
2000
2000
7E00
4000
4000
8000
8000
8000
ENDCHAR

STARTCHAR G
ENCODING 71
SWIDTH 792 0
DWIDTH 11 0
BBX 10 11 1 0
BITMAP
0780
1840
2040
4000
4000
8780
8080
8100
8100
4700
3900
ENDCHAR

STARTCHAR H
ENCODING 72
SWIDTH 792 0
DWIDTH 11 0
BBX 11 11 1 0
BITMAP
1020
1020
2040
2040
2040
7F80
4080
4080
8100
8100
8100
ENDCHAR

STARTCHAR I
ENCODING 73
SWIDTH 360 0
DWIDTH 5 0
BBX 4 11 1 0
BITMAP
10
10
20
20
20
40
40
40
80
80
80
ENDCHAR

STARTCHAR J
ENCODING 74
SWIDTH 648 0
DWIDTH 9 0
BBX 9 11 1 0
BITMAP
0080
0080
0100
0100
0100
0200
0200
8200
8400
8400
7800
ENDCHAR

STARTCHAR K
ENCODING 75
SWIDTH 720 0
DWIDTH 10 0
BBX 9 11 1 0
BITMAP
1080
1100
2200
2400
2800
7800
4800
4400
8200
8200
8100
ENDCHAR

STARTCHAR L
ENCODING 76
SWIDTH 576 0
DWIDTH 8 0
BBX 6 11 1 0
BITMAP
10
10
20
20
20
40
40
40
80
80
FC
ENDCHAR

STARTCHAR M
ENCODING 77
SWIDTH 1008 0
DWIDTH 14 0
BBX 14 11 1 0
BITMAP
100C
1014
2828
2828
2848
4890
4890
4510
8520
8620
8420
ENDCHAR

STARTCHAR N
ENCODING 78
SWIDTH 792 0
DWIDTH 11 0
BBX 11 11 1 0
BITMAP
1020
1020
2840
2840
2840
4480
4480
4500
8500
8200
8200
ENDCHAR

STARTCHAR O
ENCODING 79
SWIDTH 792 0
DWIDTH 11 0
BBX 10 11 1 0
BITMAP
0700
1880
20C0
4040
4040
8080
8080
8180
8200
C600
3800
ENDCHAR

STARTCHAR P
ENCODING 80
SWIDTH 648 0
DWIDTH 9 0
BBX 9 11 1 0
BITMAP
1F00
1080
2080
2080
2100
7E00
4000
4000
8000
8000
8000
ENDCHAR

STARTCHAR Q
ENCODING 81
SWIDTH 792 0
DWIDTH 11 0
BBX 10 11 1 0
BITMAP
0700
1880
20C0
4040
4040
8080
8880
8580
8200
C700
3880
ENDCHAR

STARTCHAR R
ENCODING 82
SWIDTH 720 0
DWIDTH 10 0
BBX 9 11 1 0
BITMAP
1F00
1080
2080
2080
2100
7E00
4100
4100
8100
8200
8200
ENDCHAR

STARTCHAR S
ENCODING 83
SWIDTH 648 0
DWIDTH 9 0
BBX 9 11 1 0
BITMAP
0700
1880
2080
2000
1800
0600
0100
0100
8200
C600
3800
ENDCHAR

STARTCHAR T
ENCODING 84
SWIDTH 576 0
DWIDTH 8 0
BBX 9 11 2 0
BITMAP
FF80
0800
1000
1000
1000
2000
2000
2000
4000
4000
4000
ENDCHAR

STARTCHAR U
ENCODING 85
SWIDTH 792 0
DWIDTH 11 0
BBX 11 11 1 0
BITMAP
1020
1020
2040
2040
2040
4080
4080
4080
8100
C300
7E00
ENDCHAR

STARTCHAR V
ENCODING 86
SWIDTH 792 0
DWIDTH 11 0
BBX 9 11 3 0
BITMAP
8080
8080
8100
4100
4200
4200
4400
4800
4800
3000
2000
ENDCHAR

STARTCHAR W
ENCODING 87
SWIDTH 1008 0
DWIDTH 14 0
BBX 12 11 3 0
BITMAP
8410
8410
8C20
8C20
9440
9440
A480
A480
C300
8200
8200
ENDCHAR

STARTCHAR X
ENCODING 88
SWIDTH 720 0
DWIDTH 10 0
BBX 11 11 0 0
BITMAP
1020
1040
0880
0900
0600
0400
0A00
1200
2100
4100
8080
ENDCHAR

STARTCHAR Y
ENCODING 89
SWIDTH 648 0
DWIDTH 9 0
BBX 8 11 3 0
BITMAP
81
82
82
44
48
48
30
20
20
40
40
ENDCHAR

STARTCHAR Z
ENCODING 90
SWIDTH 648 0
DWIDTH 9 0
BBX 11 11 0 0
BITMAP
0FE0
0040
0080
0100
0200
0400
0800
1000
2000
4000
FF00
ENDCHAR

STARTCHAR bracketleft
ENCODING 91
SWIDTH 360 0
DWIDTH 5 0
BBX 7 14 0 -3
BITMAP
0E
08
10
10
10
20
20
20
40
40
40
80
80
E0
ENDCHAR

STARTCHAR backslash
ENCODING 92
SWIDTH 432 0
DWIDTH 6 0
BBX 3 11 2 0
BITMAP
80
80
80
40
40
40
40
20
20
20
20
ENDCHAR

STARTCHAR bracketright
ENCODING 93
SWIDTH 360 0
DWIDTH 5 0
BBX 7 14 0 -3
BITMAP
0E
02
04
04
04
08
08
08
10
10
10
20
20
E0
ENDCHAR

STARTCHAR asciicircum
ENCODING 94
SWIDTH 504 0
DWIDTH 7 0
BBX 6 5 1 6
BITMAP
08
14
24
44
84
ENDCHAR

STARTCHAR underscore
ENCODING 95
SWIDTH 576 0
DWIDTH 8 0
BBX 8 1 0 -3
BITMAP
FF
ENDCHAR

STARTCHAR quoteleft
ENCODING 96
SWIDTH 216 0
DWIDTH 3 0
BBX 2 3 2 8
BITMAP
40
80
C0
ENDCHAR

STARTCHAR a
ENCODING 97
SWIDTH 576 0
DWIDTH 8 0
BBX 7 8 1 0
BITMAP
1C
22
02
3C
44
88
98
EC
ENDCHAR

STARTCHAR b
ENCODING 98
SWIDTH 576 0
DWIDTH 8 0
BBX 7 11 1 0
BITMAP
10
10
20
2C
32
42
42
42
84
C4
B8
ENDCHAR

STARTCHAR c
ENCODING 99
SWIDTH 504 0
DWIDTH 7 0
BBX 7 8 1 0
BITMAP
1C
22
40
40
80
84
88
70
ENDCHAR

STARTCHAR d
ENCODING 100
SWIDTH 576 0
DWIDTH 8 0
BBX 9 11 1 0
BITMAP
0080
0080
0100
1D00
2500
4200
4200
8200
8400
8C00
7400
ENDCHAR

STARTCHAR e
ENCODING 101
SWIDTH 576 0
DWIDTH 8 0
BBX 7 8 1 0
BITMAP
1C
22
42
7E
80
80
8C
70
ENDCHAR

STARTCHAR f
ENCODING 102
SWIDTH 288 0
DWIDTH 4 0
BBX 6 11 1 0
BITMAP
0C
10
20
F8
20
40
40
40
80
80
80
ENDCHAR

STARTCHAR g
ENCODING 103
SWIDTH 576 0
DWIDTH 8 0
BBX 9 11 0 -3
BITMAP
0E80
1180
2100
2100
4100
4200
4600
3A00
0400
8400
7800
ENDCHAR

STARTCHAR h
ENCODING 104
SWIDTH 576 0
DWIDTH 8 0
BBX 7 11 1 0
BITMAP
10
10
20
2C
32
42
44
44
84
88
88
ENDCHAR

STARTCHAR i
ENCODING 105
SWIDTH 288 0
DWIDTH 4 0
BBX 4 11 1 0
BITMAP
10
10
00
20
20
40
40
40
80
80
80
ENDCHAR

STARTCHAR j
ENCODING 106
SWIDTH 216 0
DWIDTH 3 0
BBX 7 14 -1 -3
BITMAP
02
02
00
04
04
08
08
08
10
10
10
10
20
C0
ENDCHAR

STARTCHAR k
ENCODING 107
SWIDTH 504 0
DWIDTH 7 0
BBX 7 11 1 0
BITMAP
10
10
20
22
24
58
60
50
90
88
84
ENDCHAR

STARTCHAR l
ENCODING 108
SWIDTH 216 0
DWIDTH 3 0
BBX 4 11 1 0
BITMAP
10
10
20
20
20
40
40
40
80
80
80
ENDCHAR

STARTCHAR m
ENCODING 109
SWIDTH 792 0
DWIDTH 11 0
BBX 11 8 1 0
BITMAP
2CC0
3320
4420
4440
4440
8880
8880
8880
ENDCHAR

STARTCHAR n
ENCODING 110
SWIDTH 576 0
DWIDTH 8 0
BBX 7 8 1 0
BITMAP
2C
32
42
44
44
84
88
88
ENDCHAR

STARTCHAR o
ENCODING 111
SWIDTH 576 0
DWIDTH 8 0
BBX 7 8 1 0
BITMAP
1C
22
42
42
84
84
88
70
ENDCHAR

STARTCHAR p
ENCODING 112
SWIDTH 576 0
DWIDTH 8 0
BBX 8 11 0 -3
BITMAP
16
19
21
21
21
42
62
5C
40
80
80
ENDCHAR

STARTCHAR q
ENCODING 113
SWIDTH 576 0
DWIDTH 8 0
BBX 8 11 1 -3
BITMAP
1D
23
42
42
82
84
8C
74
04
08
08
ENDCHAR

STARTCHAR r
ENCODING 114
SWIDTH 360 0
DWIDTH 5 0
BBX 6 8 1 0
BITMAP
2C
30
40
40
40
80
80
80
ENDCHAR

STARTCHAR s
ENCODING 115
SWIDTH 504 0
DWIDTH 7 0
BBX 7 8 1 0
BITMAP
1C
22
40
38
04
84
88
70
ENDCHAR

STARTCHAR t
ENCODING 116
SWIDTH 288 0
DWIDTH 4 0
BBX 5 10 1 0
BITMAP
10
10
78
20
40
40
40
80
80
60
ENDCHAR

STARTCHAR u
ENCODING 117
SWIDTH 576 0
DWIDTH 8 0
BBX 7 8 1 0
BITMAP
22
22
42
44
44
84
98
68
ENDCHAR

STARTCHAR v
ENCODING 118
SWIDTH 504 0
DWIDTH 7 0
BBX 6 8 2 0
BITMAP
84
88
88
90
90
A0
A0
C0
ENDCHAR

STARTCHAR w
ENCODING 119
SWIDTH 720 0
DWIDTH 10 0
BBX 9 8 2 0
BITMAP
8880
8880
9900
9900
AA00
AA00
CC00
8800
ENDCHAR

STARTCHAR x
ENCODING 120
SWIDTH 504 0
DWIDTH 7 0
BBX 8 8 0 0
BITMAP
21
12
14
08
18
24
44
82
ENDCHAR

STARTCHAR y
ENCODING 121
SWIDTH 504 0
DWIDTH 7 0
BBX 7 11 1 -3
BITMAP
42
44
44
48
48
50
60
20
40
40
80
ENDCHAR

STARTCHAR z
ENCODING 122
SWIDTH 504 0
DWIDTH 7 0
BBX 8 8 0 0
BITMAP
3F
01
06
08
30
40
80
FC
ENDCHAR

STARTCHAR braceleft
ENCODING 123
SWIDTH 360 0
DWIDTH 5 0
BBX 6 14 1 -3
BITMAP
0C
10
20
20
20
40
80
40
40
40
80
80
80
60
ENDCHAR

STARTCHAR bar
ENCODING 124
SWIDTH 288 0
DWIDTH 4 0
BBX 5 14 0 -3
BITMAP
08
08
10
10
10
20
20
20
40
40
40
40
80
80
ENDCHAR

STARTCHAR braceright
ENCODING 125
SWIDTH 360 0
DWIDTH 5 0
BBX 7 14 -1 -3
BITMAP
0C
02
02
04
04
04
02
04
08
08
08
10
10
E0
ENDCHAR

STARTCHAR asciitilde
ENCODING 126
SWIDTH 576 0
DWIDTH 8 0
BBX 6 3 2 3
BITMAP
64
B4
98
ENDCHAR

STARTCHAR cent
ENCODING 162
SWIDTH 576 0
DWIDTH 8 0
BBX 7 10 1 -1
BITMAP
04
1C
2A
48
50
90
A4
A8
70
40
ENDCHAR

STARTCHAR sterling
ENCODING 163
SWIDTH 648 0
DWIDTH 9 0
BBX 9 11 0 0
BITMAP
0700
0880
1080
1000
3E00
1000
1000
2000
4000
6200
DC00
ENDCHAR

STARTCHAR currency
ENCODING 164
SWIDTH 576 0
DWIDTH 8 0
BBX 7 6 1 2
BITMAP
42
3C
48
48
78
84
ENDCHAR

STARTCHAR yen
ENCODING 165
SWIDTH 648 0
DWIDTH 9 0
BBX 9 11 1 0
BITMAP
2080
2080
2100
1200
1400
0800
7E00
1000
FC00
2000
2000
ENDCHAR

STARTCHAR brokenbar
ENCODING 166
SWIDTH 288 0
DWIDTH 4 0
BBX 4 14 0 -3
BITMAP
10
10
10
20
20
20
00
00
40
40
40
80
80
80
ENDCHAR

STARTCHAR section
ENCODING 167
SWIDTH 576 0
DWIDTH 8 0
BBX 8 14 0 -3
BITMAP
0E
11
11
08
1C
26
42
42
64
38
10
88
88
70
ENDCHAR

STARTCHAR dieresis
ENCODING 168
SWIDTH 360 0
DWIDTH 5 0
BBX 5 1 2 9
BITMAP
D8
ENDCHAR

STARTCHAR copyright
ENCODING 169
SWIDTH 864 0
DWIDTH 12 0
BBX 11 11 1 0
BITMAP
0F00
30C0
4640
4920
9020
9020
9020
9240
4C40
6180
1E00
ENDCHAR

STARTCHAR multiply
ENCODING 170
SWIDTH 648 0
DWIDTH 9 0
BBX 8 7 0 1
BITMAP
41
22
14
18
28
44
82
ENDCHAR

STARTCHAR guillemotleft
ENCODING 171
SWIDTH 576 0
DWIDTH 8 0
BBX 6 4 1 2
BITMAP
24
48
90
48
ENDCHAR

STARTCHAR logicalnot
ENCODING 172
SWIDTH 648 0
DWIDTH 9 0
BBX 7 4 1 2
BITMAP
FE
02
04
04
ENDCHAR

STARTCHAR hyphen
ENCODING 173
SWIDTH 360 0
DWIDTH 5 0
BBX 4 1 1 4
BITMAP
F0
ENDCHAR

STARTCHAR registered
ENCODING 174
SWIDTH 864 0
DWIDTH 12 0
BBX 11 11 1 0
BITMAP
0F00
30C0
4E40
4920
8920
9E20
9220
9240
5240
6180
1E00
ENDCHAR

STARTCHAR macron
ENCODING 175
SWIDTH 288 0
DWIDTH 4 0
BBX 4 1 2 9
BITMAP
F0
ENDCHAR

STARTCHAR degree
ENCODING 176
SWIDTH 432 0
DWIDTH 6 0
BBX 4 4 3 7
BITMAP
60
90
90
60
ENDCHAR

STARTCHAR plusminus
ENCODING 177
SWIDTH 648 0
DWIDTH 9 0
BBX 8 9 0 0
BITMAP
04
04
08
7F
08
10
10
00
FE
ENDCHAR

STARTCHAR twosuperior
ENCODING 178
SWIDTH 360 0
DWIDTH 5 0
BBX 4 6 2 5
BITMAP
70
90
10
20
40
F0
ENDCHAR

STARTCHAR threesuperior
ENCODING 179
SWIDTH 360 0
DWIDTH 5 0
BBX 4 6 2 5
BITMAP
70
90
20
10
90
E0
ENDCHAR

STARTCHAR acute
ENCODING 180
SWIDTH 288 0
DWIDTH 4 0
BBX 2 2 3 9
BITMAP
40
80
ENDCHAR

STARTCHAR mu
ENCODING 181
SWIDTH 576 0
DWIDTH 8 0
BBX 8 11 0 -3
BITMAP
11
11
21
22
22
42
4C
74
80
80
80
ENDCHAR

STARTCHAR paragraph
ENCODING 182
SWIDTH 576 0
DWIDTH 8 0
BBX 8 14 2 -3
BITMAP
1F
7A
F4
F4
F4
E8
68
28
50
50
50
A0
A0
A0
ENDCHAR

STARTCHAR periodcentered
ENCODING 183
SWIDTH 288 0
DWIDTH 4 0
BBX 2 1 1 4
BITMAP
C0
ENDCHAR

STARTCHAR cedilla
ENCODING 184
SWIDTH 216 0
DWIDTH 3 0
BBX 4 3 0 -3
BITMAP
10
90
60
ENDCHAR

STARTCHAR onesuperior
ENCODING 185
SWIDTH 360 0
DWIDTH 5 0
BBX 2 6 3 5
BITMAP
40
C0
40
80
80
80
ENDCHAR

STARTCHAR divide
ENCODING 186
SWIDTH 648 0
DWIDTH 9 0
BBX 7 7 1 1
BITMAP
08
08
00
FE
00
20
20
ENDCHAR

STARTCHAR guillemotright
ENCODING 187
SWIDTH 576 0
DWIDTH 8 0
BBX 6 4 1 2
BITMAP
48
24
48
90
ENDCHAR

STARTCHAR onequarter
ENCODING 188
SWIDTH 864 0
DWIDTH 12 0
BBX 11 11 0 0
BITMAP
1020
3040
1080
2100
2200
24C0
0940
1280
2480
47C0
8100
ENDCHAR

STARTCHAR onehalf
ENCODING 189
SWIDTH 864 0
DWIDTH 12 0
BBX 11 11 0 0
BITMAP
1020
3040
1080
2100
2200
25C0
0A40
1040
2080
4100
83C0
ENDCHAR

STARTCHAR threequarters
ENCODING 190
SWIDTH 864 0
DWIDTH 12 0
BBX 11 11 2 0
BITMAP
7020
9040
2080
1100
9200
E4C0
0940
1280
2480
47C0
8100
ENDCHAR

STARTCHAR dblunderscore
ENCODING 223
SWIDTH 576 0
DWIDTH 8 0
BBX 8 6 0 -3
BITMAP
00
00
FF
00
00
FF
ENDCHAR

STARTCHAR aleph
ENCODING 224
SWIDTH 504 0
DWIDTH 7 0
BBX 7 9 0 0
BITMAP
22
22
12
34
48
88
88
84
84
ENDCHAR

STARTCHAR beth
ENCODING 225
SWIDTH 576 0
DWIDTH 8 0
BBX 8 9 0 0
BITMAP
3E
01
01
02
02
02
04
04
FE
ENDCHAR

STARTCHAR gimmel
ENCODING 226
SWIDTH 432 0
DWIDTH 6 0
BBX 6 9 0 0
BITMAP
18
04
04
04
08
18
28
48
88
ENDCHAR

STARTCHAR daleth
ENCODING 227
SWIDTH 648 0
DWIDTH 9 0
BBX 8 9 1 0
BITMAP
7F
04
04
08
08
08
10
10
10
ENDCHAR

STARTCHAR he
ENCODING 228
SWIDTH 504 0
DWIDTH 7 0
BBX 7 9 0 0
BITMAP
3C
02
02
44
44
44
88
88
88
ENDCHAR

STARTCHAR waw
ENCODING 229
SWIDTH 216 0
DWIDTH 3 0
BBX 3 9 0 0
BITMAP
20
20
20
40
40
40
80
80
80
ENDCHAR

STARTCHAR zayin
ENCODING 230
SWIDTH 432 0
DWIDTH 6 0
BBX 5 9 1 0
BITMAP
78
10
20
40
40
40
80
80
80
ENDCHAR

STARTCHAR het
ENCODING 231
SWIDTH 576 0
DWIDTH 8 0
BBX 8 9 0 0
BITMAP
3E
21
21
42
42
42
84
84
84
ENDCHAR

STARTCHAR teth
ENCODING 232
SWIDTH 720 0
DWIDTH 10 0
BBX 10 9 0 0
BITMAP
2380
2440
2440
4040
4080
4080
8100
8300
7C00
ENDCHAR

STARTCHAR yod
ENCODING 233
SWIDTH 216 0
DWIDTH 3 0
BBX 2 6 1 3
BITMAP
40
40
40
40
80
80
ENDCHAR

STARTCHAR kaphfinal
ENCODING 234
SWIDTH 576 0
DWIDTH 8 0
BBX 8 12 0 -3
BITMAP
3E
03
01
01
02
02
04
04
04
08
08
08
ENDCHAR

STARTCHAR kaph
ENCODING 235
SWIDTH 576 0
DWIDTH 8 0
BBX 8 9 0 0
BITMAP
3E
01
01
01
02
02
04
0C
F0
ENDCHAR

STARTCHAR lamed
ENCODING 236
SWIDTH 504 0
DWIDTH 7 0
BBX 7 12 0 -1
BITMAP
40
40
7E
02
02
04
08
10
20
40
80
00
ENDCHAR

STARTCHAR memfinal
ENCODING 237
SWIDTH 648 0
DWIDTH 9 0
BBX 9 9 0 0
BITMAP
3F00
2080
2080
4100
4100
4100
8200
8200
FE00
ENDCHAR

STARTCHAR mem
ENCODING 238
SWIDTH 648 0
DWIDTH 9 0
BBX 9 9 0 0
BITMAP
2600
2900
1080
2080
2080
4100
4100
8200
9C00
ENDCHAR

STARTCHAR nunfinal
ENCODING 239
SWIDTH 288 0
DWIDTH 4 0
BBX 4 12 0 -3
BITMAP
10
10
10
20
20
20
40
40
40
80
80
80
ENDCHAR

STARTCHAR nun
ENCODING 240
SWIDTH 432 0
DWIDTH 6 0
BBX 6 9 0 0
BITMAP
18
04
04
04
08
08
08
10
F0
ENDCHAR

STARTCHAR samekh
ENCODING 241
SWIDTH 648 0
DWIDTH 9 0
BBX 9 9 0 0
BITMAP
3F00
2080
2080
4080
4100
4100
8200
8600
7800
ENDCHAR

STARTCHAR ayin
ENCODING 242
SWIDTH 576 0
DWIDTH 8 0
BBX 8 10 0 -1
BITMAP
11
11
11
11
12
12
14
14
18
E0
ENDCHAR

STARTCHAR pefinal
ENCODING 243
SWIDTH 504 0
DWIDTH 7 0
BBX 7 12 0 -3
BITMAP
7C
42
42
82
84
E4
08
08
08
10
10
10
ENDCHAR

STARTCHAR pe
ENCODING 244
SWIDTH 576 0
DWIDTH 8 0
BBX 8 9 0 0
BITMAP
3E
21
21
41
71
02
02
0C
F0
ENDCHAR

STARTCHAR zadikfinal
ENCODING 245
SWIDTH 504 0
DWIDTH 7 0
BBX 7 12 0 -3
BITMAP
82
42
42
24
38
20
40
40
40
80
80
80
ENDCHAR

STARTCHAR zadik
ENCODING 246
SWIDTH 504 0
DWIDTH 7 0
BBX 7 9 0 0
BITMAP
22
22
22
14
14
08
08
04
FC
ENDCHAR

STARTCHAR kof
ENCODING 247
SWIDTH 648 0
DWIDTH 9 0
BBX 9 12 0 -3
BITMAP
3F80
0080
0100
2100
2200
2200
4400
4400
4800
8000
8000
8000
ENDCHAR

STARTCHAR resh
ENCODING 248
SWIDTH 576 0
DWIDTH 8 0
BBX 7 9 1 0
BITMAP
7C
02
02
04
04
04
08
08
08
ENDCHAR

STARTCHAR shin
ENCODING 249
SWIDTH 720 0
DWIDTH 10 0
BBX 10 9 0 0
BITMAP
2440
2440
2440
4880
4880
7100
8100
8600
7800
ENDCHAR

STARTCHAR taf
ENCODING 250
SWIDTH 648 0
DWIDTH 9 0
BBX 9 9 0 0
BITMAP
3F00
0880
0880
1100
1100
1100
2200
2200
C200
ENDCHAR
ENDFONT
